<mxfile host="app.diagrams.net" modified="2022-12-13T21:50:28.710Z" agent="5.0 (Windows NT 10.0; Win64; x64) AppleWebKit/537.36 (KHTML, like Gecko) Chrome/108.0.0.0 Safari/537.36" version="20.6.0" etag="HOBpifK_0tV7oG7LrLmE" type="github">
  <diagram id="OYhVqp0vsfandufoHfLu" name="페이지-1">
    <mxGraphModel dx="460" dy="744" grid="1" gridSize="10" guides="1" tooltips="1" connect="1" arrows="1" fold="1" page="1" pageScale="1" pageWidth="827" pageHeight="1169" math="0" shadow="0">
      <root>
        <mxCell id="0" />
        <mxCell id="1" parent="0" />
        <mxCell id="qUN32F0Ne-95Lm3Ochqd-6" style="edgeStyle=orthogonalEdgeStyle;rounded=0;orthogonalLoop=1;jettySize=auto;html=1;exitX=0.5;exitY=1;exitDx=0;exitDy=0;exitPerimeter=0;entryX=0.5;entryY=0;entryDx=0;entryDy=0;" edge="1" parent="1" source="qUN32F0Ne-95Lm3Ochqd-2" target="qUN32F0Ne-95Lm3Ochqd-3">
          <mxGeometry relative="1" as="geometry" />
        </mxCell>
        <mxCell id="qUN32F0Ne-95Lm3Ochqd-2" value="시작" style="strokeWidth=2;html=1;shape=mxgraph.flowchart.terminator;whiteSpace=wrap;" vertex="1" parent="1">
          <mxGeometry x="50" y="220" width="100" height="60" as="geometry" />
        </mxCell>
        <mxCell id="qUN32F0Ne-95Lm3Ochqd-7" style="edgeStyle=orthogonalEdgeStyle;rounded=0;orthogonalLoop=1;jettySize=auto;html=1;exitX=0.5;exitY=1;exitDx=0;exitDy=0;entryX=0.5;entryY=0;entryDx=0;entryDy=0;" edge="1" parent="1" source="qUN32F0Ne-95Lm3Ochqd-3" target="qUN32F0Ne-95Lm3Ochqd-5">
          <mxGeometry relative="1" as="geometry" />
        </mxCell>
        <mxCell id="qUN32F0Ne-95Lm3Ochqd-3" value="초기값 a_0 선정" style="rounded=1;whiteSpace=wrap;html=1;absoluteArcSize=1;arcSize=14;strokeWidth=2;" vertex="1" parent="1">
          <mxGeometry x="30" y="300" width="140" height="70" as="geometry" />
        </mxCell>
        <mxCell id="qUN32F0Ne-95Lm3Ochqd-9" style="edgeStyle=orthogonalEdgeStyle;rounded=0;orthogonalLoop=1;jettySize=auto;html=1;exitX=0.5;exitY=1;exitDx=0;exitDy=0;entryX=0.5;entryY=0;entryDx=0;entryDy=0;" edge="1" parent="1" source="qUN32F0Ne-95Lm3Ochqd-5" target="qUN32F0Ne-95Lm3Ochqd-8">
          <mxGeometry relative="1" as="geometry" />
        </mxCell>
        <mxCell id="qUN32F0Ne-95Lm3Ochqd-5" value="플랫폼 플레이트의&lt;br&gt;조인트 위치 계산" style="rounded=1;whiteSpace=wrap;html=1;absoluteArcSize=1;arcSize=14;strokeWidth=2;" vertex="1" parent="1">
          <mxGeometry x="30" y="400" width="140" height="70" as="geometry" />
        </mxCell>
        <mxCell id="qUN32F0Ne-95Lm3Ochqd-11" style="edgeStyle=orthogonalEdgeStyle;rounded=0;orthogonalLoop=1;jettySize=auto;html=1;exitX=0.5;exitY=1;exitDx=0;exitDy=0;entryX=0.5;entryY=0;entryDx=0;entryDy=0;entryPerimeter=0;" edge="1" parent="1" source="qUN32F0Ne-95Lm3Ochqd-8" target="qUN32F0Ne-95Lm3Ochqd-10">
          <mxGeometry relative="1" as="geometry" />
        </mxCell>
        <mxCell id="qUN32F0Ne-95Lm3Ochqd-8" value="" style="rounded=1;whiteSpace=wrap;html=1;absoluteArcSize=1;arcSize=14;strokeWidth=2;" vertex="1" parent="1">
          <mxGeometry x="30" y="500" width="140" height="70" as="geometry" />
        </mxCell>
        <mxCell id="qUN32F0Ne-95Lm3Ochqd-18" style="edgeStyle=orthogonalEdgeStyle;rounded=0;orthogonalLoop=1;jettySize=auto;html=1;exitX=1;exitY=0.5;exitDx=0;exitDy=0;exitPerimeter=0;entryX=0.5;entryY=0;entryDx=0;entryDy=0;entryPerimeter=0;" edge="1" parent="1" source="qUN32F0Ne-95Lm3Ochqd-10" target="qUN32F0Ne-95Lm3Ochqd-14">
          <mxGeometry relative="1" as="geometry" />
        </mxCell>
        <mxCell id="qUN32F0Ne-95Lm3Ochqd-31" style="edgeStyle=orthogonalEdgeStyle;rounded=0;orthogonalLoop=1;jettySize=auto;html=1;exitX=0.5;exitY=1;exitDx=0;exitDy=0;exitPerimeter=0;entryX=0.5;entryY=0;entryDx=0;entryDy=0;" edge="1" parent="1" source="qUN32F0Ne-95Lm3Ochqd-10" target="qUN32F0Ne-95Lm3Ochqd-12">
          <mxGeometry relative="1" as="geometry" />
        </mxCell>
        <mxCell id="qUN32F0Ne-95Lm3Ochqd-10" value="" style="strokeWidth=2;html=1;shape=mxgraph.flowchart.decision;whiteSpace=wrap;" vertex="1" parent="1">
          <mxGeometry x="220" y="290" width="180" height="100" as="geometry" />
        </mxCell>
        <mxCell id="qUN32F0Ne-95Lm3Ochqd-30" style="edgeStyle=orthogonalEdgeStyle;rounded=0;orthogonalLoop=1;jettySize=auto;html=1;exitX=0.5;exitY=1;exitDx=0;exitDy=0;entryX=0.5;entryY=0;entryDx=0;entryDy=0;entryPerimeter=0;" edge="1" parent="1" source="qUN32F0Ne-95Lm3Ochqd-12" target="qUN32F0Ne-95Lm3Ochqd-13">
          <mxGeometry relative="1" as="geometry" />
        </mxCell>
        <mxCell id="qUN32F0Ne-95Lm3Ochqd-12" value="플랫폼 플레이트의&lt;br&gt;조인트 위치 계산" style="rounded=1;whiteSpace=wrap;html=1;absoluteArcSize=1;arcSize=14;strokeWidth=2;" vertex="1" parent="1">
          <mxGeometry x="240" y="400" width="140" height="70" as="geometry" />
        </mxCell>
        <mxCell id="qUN32F0Ne-95Lm3Ochqd-22" style="edgeStyle=orthogonalEdgeStyle;rounded=0;orthogonalLoop=1;jettySize=auto;html=1;exitX=1;exitY=0.5;exitDx=0;exitDy=0;exitPerimeter=0;entryX=0.5;entryY=0;entryDx=0;entryDy=0;entryPerimeter=0;" edge="1" parent="1" source="qUN32F0Ne-95Lm3Ochqd-13" target="qUN32F0Ne-95Lm3Ochqd-14">
          <mxGeometry relative="1" as="geometry">
            <Array as="points">
              <mxPoint x="425" y="535" />
              <mxPoint x="425" y="270" />
              <mxPoint x="520" y="270" />
            </Array>
          </mxGeometry>
        </mxCell>
        <mxCell id="qUN32F0Ne-95Lm3Ochqd-27" style="edgeStyle=orthogonalEdgeStyle;rounded=0;orthogonalLoop=1;jettySize=auto;html=1;exitX=0.5;exitY=1;exitDx=0;exitDy=0;exitPerimeter=0;entryX=0;entryY=1;entryDx=0;entryDy=0;" edge="1" parent="1" source="qUN32F0Ne-95Lm3Ochqd-13" target="qUN32F0Ne-95Lm3Ochqd-26">
          <mxGeometry relative="1" as="geometry" />
        </mxCell>
        <mxCell id="qUN32F0Ne-95Lm3Ochqd-13" value="" style="strokeWidth=2;html=1;shape=mxgraph.flowchart.decision;whiteSpace=wrap;" vertex="1" parent="1">
          <mxGeometry x="220" y="485" width="180" height="100" as="geometry" />
        </mxCell>
        <mxCell id="qUN32F0Ne-95Lm3Ochqd-33" value="" style="edgeStyle=orthogonalEdgeStyle;rounded=0;orthogonalLoop=1;jettySize=auto;html=1;" edge="1" parent="1" source="qUN32F0Ne-95Lm3Ochqd-14" target="qUN32F0Ne-95Lm3Ochqd-32">
          <mxGeometry relative="1" as="geometry" />
        </mxCell>
        <mxCell id="qUN32F0Ne-95Lm3Ochqd-14" value="a 값을 ROS topic으로&lt;br&gt;퍼블리시" style="strokeWidth=2;html=1;shape=mxgraph.flowchart.document2;whiteSpace=wrap;size=0.25;" vertex="1" parent="1">
          <mxGeometry x="450" y="300" width="140" height="80" as="geometry" />
        </mxCell>
        <mxCell id="qUN32F0Ne-95Lm3Ochqd-19" value="YES" style="text;html=1;strokeColor=none;fillColor=none;align=center;verticalAlign=middle;whiteSpace=wrap;rounded=0;" vertex="1" parent="1">
          <mxGeometry x="370" y="300" width="60" height="30" as="geometry" />
        </mxCell>
        <mxCell id="qUN32F0Ne-95Lm3Ochqd-20" value="YES" style="text;html=1;strokeColor=none;fillColor=none;align=center;verticalAlign=middle;whiteSpace=wrap;rounded=0;" vertex="1" parent="1">
          <mxGeometry x="370" y="500" width="60" height="30" as="geometry" />
        </mxCell>
        <mxCell id="qUN32F0Ne-95Lm3Ochqd-25" style="edgeStyle=orthogonalEdgeStyle;rounded=0;orthogonalLoop=1;jettySize=auto;html=1;exitX=0;exitY=0.5;exitDx=0;exitDy=0;entryX=0;entryY=0.5;entryDx=0;entryDy=0;" edge="1" parent="1" source="qUN32F0Ne-95Lm3Ochqd-21" target="qUN32F0Ne-95Lm3Ochqd-5">
          <mxGeometry relative="1" as="geometry" />
        </mxCell>
        <mxCell id="qUN32F0Ne-95Lm3Ochqd-21" value="" style="rounded=1;whiteSpace=wrap;html=1;absoluteArcSize=1;arcSize=14;strokeWidth=2;" vertex="1" parent="1">
          <mxGeometry x="240" y="610" width="140" height="70" as="geometry" />
        </mxCell>
        <mxCell id="qUN32F0Ne-95Lm3Ochqd-26" value="NO" style="text;html=1;strokeColor=none;fillColor=none;align=center;verticalAlign=middle;whiteSpace=wrap;rounded=0;" vertex="1" parent="1">
          <mxGeometry x="310" y="580" width="60" height="30" as="geometry" />
        </mxCell>
        <mxCell id="qUN32F0Ne-95Lm3Ochqd-32" value="종료" style="strokeWidth=2;html=1;shape=mxgraph.flowchart.terminator;whiteSpace=wrap;" vertex="1" parent="1">
          <mxGeometry x="470" y="405" width="100" height="60" as="geometry" />
        </mxCell>
      </root>
    </mxGraphModel>
  </diagram>
</mxfile>
